<svg xmlns="http://www.w3.org/2000/svg" viewBox="0 0 120 120" role="img" aria-label="animal placeholder">
  <rect width="120" height="120" rx="18" fill="#eef0df"/>
  <ellipse cx="60" cy="96" rx="40" ry="9" fill="#b7b89f" opacity=".45"/>
  <path d="M29 66c0-20 15-36 34-36 18 0 31 13 31 32 0 18-14 31-34 31-18 0-31-10-31-27z" fill="#c79b73"/>
  <path d="M35 40l11-17 9 18zM78 39l13-15 5 20z" fill="#c79b73"/>
  <circle cx="50" cy="55" r="3" fill="#57493f"/>
  <circle cx="73" cy="55" r="3" fill="#57493f"/>
  <path d="M58 68c5 4 9 4 14 0" fill="none" stroke="#57493f" stroke-width="3" stroke-linecap="round"/>
  <path d="M91 70c13 0 18-11 12-21" fill="none" stroke="#c79b73" stroke-width="8" stroke-linecap="round"/>
</svg>
